# xmcd
#
# Track frame offsets: 
#        202
#        22942
#        33905
#        54785
#        80510
#        96205
#        112205
#        133067
#        156212
#        170697
#        189270
#
# Disc length: 2899 seconds
#
# Revision: 6
# Processed by: cddbd v1.5.2PL0 Copyright (c) Steve Scherf et al.
# Submitted via: ExactAudioCopyFreeDBPlugin 1.0
#
DISCID=860b510b
DTITLE=Buddy Guy - Feels Like Rain
DYEAR=1994
DGENRE=Blues
TTITLE0=She's A Superstar
TTITLE1=I Go Crazy
TTITLE2=Buddy Guy and  Bonnie Raitt - Feels Like Rain 
TTITLE3=She's Nineteen Years Old
TTITLE4=Buddy Guy and Paul Rodgers - Some Kind Of Wonderful
TTITLE5=Sufferin' Mind
TTITLE6=Buddy Guy and Travis Tritt - Change In The Weather 
TTITLE7=Buddy Guy and John Mayall - I Could Cry
TTITLE8=Mary Ann
TTITLE9=Trouble Man
TTITLE10=Country Man
EXTD=
EXTT0=
EXTT1=
EXTT2=
EXTT3=
EXTT4=
EXTT5=
EXTT6=
EXTT7=
EXTT8=
EXTT9=
EXTT10=
PLAYORDER=
